<svg aria-hidden="true" xmlns="http://www.w3.org/2000/svg" xmlns:xlink="http://www.w3.org/1999/xlink"><symbol viewBox="0 0 18 18" fill="none" id="icon-arrow-next" xmlns="http://www.w3.org/2000/svg">
<path opacity="0.6" d="M0 8.57129L17.1421 8.57129M17.1421 8.57129L13.7076 12.0058M17.1421 8.57129L13.9994 5.42859" stroke="currentColor"/>
</symbol><symbol viewBox="0 0 12 6" fill="none" id="icon-down" xmlns="http://www.w3.org/2000/svg">
<path d="M0.236328 0.258789L5.73633 5.25879L11.2363 0.258789" stroke="currentColor" stroke-opacity="0.8" stroke-width="0.7"/>
</symbol><symbol viewBox="0 0 16 14" fill="none" id="icon-rutube" xmlns="http://www.w3.org/2000/svg">
<path d="M11.1625 0H0V13.8684H3.10673V9.35646H9.06031L11.7762 13.8684H15.2553L12.2603 9.33577C13.1907 9.16948 13.8606 8.77409 14.2693 8.15032C14.6786 7.52656 14.8829 6.52883 14.8829 5.19779V4.15794C14.8829 3.36788 14.8089 2.74412 14.6786 2.26595C14.5483 1.78778 14.3248 1.37169 14.0087 0.997727C13.6741 0.644458 13.3018 0.394657 12.8554 0.228369C12.4091 0.0827744 11.8509 0 11.1625 0ZM10.6606 6.30046H3.10673V3.05674H10.6606C11.0885 3.05674 11.3861 3.13952 11.5348 3.28511C11.6836 3.4307 11.7762 3.7012 11.7762 4.09585V5.25987C11.7762 5.67596 11.683 5.94645 11.5342 6.09131C11.3854 6.2369 11.0878 6.29898 10.66 6.29898L10.6606 6.30046Z" fill="currentColor"/>
</symbol><symbol viewBox="0 0 16 15" fill="none" id="icon-ter" xmlns="http://www.w3.org/2000/svg">
<path fill-rule="evenodd" clip-rule="evenodd" d="M1.53104 0H14.3546C15.1968 0 15.8856 0.631454 15.8856 1.40345V13.1584C15.8856 13.9304 15.1968 14.5618 14.3546 14.5618H1.53104C0.68886 14.5618 0 13.9304 0 13.1584V1.40345C0 0.631454 0.68886 0 1.53104 0ZM5.13084 5.17523C6.39927 5.17523 7.42794 6.11818 7.42794 7.28091C7.42794 8.44365 6.39927 9.38659 5.13084 9.38659C3.8624 9.38659 2.83373 8.44365 2.83373 7.28091C2.83373 6.11818 3.8624 5.17523 5.13084 5.17523ZM10.7548 5.17523C12.0232 5.17523 13.0519 6.11818 13.0519 7.28091C13.0519 8.44365 12.0232 9.38659 10.7548 9.38659C9.48637 9.38659 8.4577 8.44365 8.4577 7.28091C8.4577 6.11818 9.48637 5.17523 10.7548 5.17523Z" fill="currentColor"/>
</symbol><symbol viewBox="0 0 19 16" fill="none" id="icon-tg" xmlns="http://www.w3.org/2000/svg">
<path d="M17.6984 0C18.2695 0 18.7004 0.511837 18.4699 1.46385L15.6745 14.9251C15.4791 15.8823 14.913 16.1126 14.1314 15.6673L7.46341 10.636C7.43755 10.617 7.41649 10.592 7.40195 10.5631C7.38742 10.5342 7.37984 10.5021 7.37984 10.4696C7.37984 10.4371 7.38742 10.4051 7.40195 10.3761C7.41649 10.3472 7.43755 10.3222 7.46341 10.3033L15.1635 3.19898C15.5141 2.88164 15.0883 2.72809 14.6274 3.01472L4.96353 9.24377C4.93422 9.26329 4.90094 9.27575 4.86622 9.28018C4.8315 9.28462 4.79625 9.28091 4.76313 9.26936L0.660114 7.9437C-0.251668 7.67243 -0.251668 7.03263 0.865516 6.5771L17.2826 0.107486C17.413 0.0441828 17.5543 0.0076628 17.6984 0Z" fill="currentColor"/>
</symbol><symbol viewBox="0 0 20 14" fill="none" id="icon-vk" xmlns="http://www.w3.org/2000/svg">
<path d="M11.7443 13.1741V9.29365C13.9843 9.69104 15.0076 11.4063 16.1188 13.1741C16.1188 13.1741 19.0666 13.1647 19.7549 13.1741C20.4432 13.1834 17.4894 8.72072 15.7873 7.0554C17.0931 4.96326 20.4561 0.0245719 19.1572 0.00756057C17.8584 -0.00945072 15.8526 0.00756057 15.8526 0.00756057C15.0076 2.20013 13.8738 4.9691 11.7443 6.73399V0.00756057H8.09313V1.65556V7.52877C6.23489 7.27748 4.8514 3.30487 3.61827 0.00756057C3.61827 0.00756057 1.33894 0.0205155 0.167956 0.00756057C-1.00303 -0.00539439 4.06525 14.3078 11.7443 13.1741Z" fill="currentColor"/>
</symbol></svg>